<svg width="699" height="607" viewBox="0 0 699 607" fill="none" xmlns="http://www.w3.org/2000/svg">
<path d="M338.457 0.148487C496.663 -4.69551 613.597 109.517 628.31 263.616C628.859 269.36 629.206 275.072 629.677 280.817C635.238 285.208 640.57 289.883 645.649 294.823C679.44 327.89 697.173 371.251 698.274 418.229C698.434 425.021 698.188 431.77 698.258 438.557C694.85 433.999 691.677 430.401 687.818 426.268C693.078 447.283 688.354 472.117 678.569 491.143C677.223 493.759 675.879 496.217 674.724 498.932L674.515 499.432C674.438 493.928 674.258 488.184 674.519 482.706C665.693 507.14 647.449 527.021 623.861 537.909C620.173 539.636 605.235 544.417 603.457 545.919C595.801 552.389 593.614 555.066 583.896 560.003C566.496 591.866 531.771 604.488 497.238 605.23C511.748 586.602 522.316 575.454 532.51 553.774C532.088 553.517 529.787 552.7 529.552 552.974C506.97 579.262 483.699 597.103 449.354 606.581C454.653 594.803 460.559 582.496 465.209 570.516C470.473 556.958 475.06 542.434 479.503 528.584C474.333 528.505 469.163 528.479 463.993 528.505C453.418 543.2 443.597 558.079 436.982 575.021C430.322 560.851 427.728 543.691 426.532 528.268C420.279 527.756 410.349 528.045 403.765 528.048L363.367 528.07C333.129 527.964 301.742 528.546 271.624 527.972C271.697 544.783 267.665 559.119 261.257 574.38C256.909 565.497 252.875 557.188 247.734 548.706C243.505 541.73 238.993 535.301 234.581 528.472C229.371 528.387 224.16 528.405 218.952 528.526C219.928 533.74 222.438 541.012 224.101 546.147C230.867 567.034 239.619 586.921 249.11 606.698C223.359 599.684 202.714 587.654 183.513 569.107C179.445 565.178 171.975 555.785 168.82 553.225C167.059 553.691 167.64 553.19 166.824 554.529C166.926 563.6 194.379 597.778 201.179 605.344C199.021 605.383 196.863 605.367 194.707 605.295C170.313 604.385 143.161 594.318 126.343 576.3C122.727 573.599 117.482 563.027 114.438 560.967C106.488 555.586 102.142 552.892 95.4761 545.634C88.0481 543.658 80.8231 540.988 73.8951 537.659C50.9751 526.457 32.5801 507.583 24.1681 483.303C23.7831 489.369 23.9201 494.051 24.5001 500.083C22.9291 497.418 21.4281 494.713 19.9971 491.971C10.2011 473.119 4.6091 446.6 11.1371 425.99C7.1251 430.144 3.61609 434.455 0.0630903 438.985C-1.15391 370.728 15.0121 325.548 68.0461 280.982C69.9371 264.968 71.0111 250.836 73.9631 234.684C98.4351 100.799 200.58 6.35049 338.457 0.148487Z" fill="#01004C"/>
<path d="M114.83 166.561C119.648 155.069 128.272 140.461 135.242 130.204C162.716 88.9255 201.888 56.7875 247.74 37.9075C313.9 11.2045 387.92 11.6585 453.748 39.1695C516.11 65.4445 564.85 117.585 589.545 180.12C602.444 212.786 611.548 254.646 612.181 289.924C646.892 316.103 670.556 349.902 677.282 393.678C677.763 396.81 678.192 400.438 678.27 403.578L674.229 401.728C670.702 400.5 657.77 395.596 655.444 396.584L655.736 397.274C668.225 420.932 670.583 440.195 662.529 466.296C655.33 490.315 638.626 510.347 616.292 521.745C615.967 521.899 615.643 522.053 615.318 522.206L616.949 517.645L617.563 513.953C619.968 498.75 616.805 481.142 603.561 471.684C597.699 467.498 592.678 466.385 585.706 465.277C585.356 461.217 584.566 457.208 583.35 453.319C575.976 429.887 554.746 419.344 531.536 427.036C518.597 408.172 507.851 404.491 485.472 408.927L473.452 399.85C453.302 385.611 431.664 377.566 407.7 372.627C405.597 373.133 406.265 372.563 405.209 373.89C405.355 375.293 405.32 375.2 406.043 376.41C404.849 378.19 400.83 379.286 398.707 379.368C398.566 371.459 394.918 365.438 391.184 358.766C393.034 350.992 395.59 343.403 398.818 336.093C407.297 317.066 426.289 292.066 448.328 286.174C452 285.601 455.831 286.43 459.518 286.32C482.55 285.629 499.044 276.297 508.321 255.2C501.229 260.846 499.082 262.533 490.473 265.044C496.439 255.145 497.923 250.307 499.576 239.023C499.536 222.105 497.242 212.859 488.125 198.88C499.121 192.652 509.264 190.59 521.913 190.199L521.824 189.811C517.147 186.776 508.533 184.463 502.991 183.77C469.646 179.603 438.658 199.468 418.85 224.86C412.459 233.051 406.625 242.305 398.277 248.596C396.522 249.914 392.485 250.962 390.266 251.599C369.355 246.062 369.354 221.241 372.147 204.004C366.251 213.688 364.732 218.687 363.16 229.825C351.204 225.319 347.353 224.765 335.209 229.533C334.787 221.137 331.743 210.408 326.118 204.116C328.603 218.457 329.04 235.918 317.674 246.689C301.379 262.132 284.377 229.815 275.033 219.503C254.61 196.966 226.977 179.708 195.449 183.76C191.114 184.317 179.578 187.237 176.455 189.957L176.784 190.206C189.599 190.387 198.567 191.993 209.739 198.855C200.513 213.778 199.151 223.032 198.933 240.092C201.058 251.54 202.114 255.383 208.47 265.492C200.725 263.717 197.035 260.883 190.724 256.067C194.77 267.283 203.358 275.698 214.014 280.914C222.185 284.776 231.08 286.311 240.073 286.371C242.359 286.387 248.879 285.879 250.574 286.421C275.27 294.316 294.389 321.047 302.932 344.489C304.733 349.431 306.103 353.829 307.098 358.334C303.774 364.342 300.85 369.036 299.582 375.895L298.383 378.056C295.594 379.078 293.591 381.842 290.812 378.737L291.093 377.678C293.724 375.356 293.816 375.826 293.673 372.551L290.575 372.707C267.951 376.985 242.034 387.335 223.271 400.736C221.091 403.01 214.802 407.27 212.058 409.116C193.133 402.826 177.087 409.879 167.046 426.622C136.324 418.507 117.016 435.047 112.512 465.192C83.9034 470.201 77.4424 491.232 81.3644 517.469L83.2124 522.061C51.4684 507.97 31.4534 472.924 31.1444 438.884C30.9984 422.853 34.9164 410.49 42.9614 396.91C39.1634 396.131 28.0284 400.544 24.3474 401.927C23.1024 402.674 21.0404 403.462 19.6304 404.052C19.7184 403.351 19.8024 402.65 19.8834 401.948C24.4174 363.537 39.0604 333.752 66.7184 306.265C72.8454 300.176 79.2114 295.362 85.9584 290.038C87.7134 260.83 91.1924 233.818 100.077 205.783C101.818 200.286 104.057 192.429 106.416 187.268C108.002 181.711 112.254 171.619 114.83 166.561Z" fill="#4E535F"/>
<path d="M108.211 226.213C109.266 226.75 109.553 226.682 109.829 228.098C113.224 245.514 119.565 261.934 129.857 276.471C130.414 263.596 131.247 257.929 136.316 245.816C137.019 251.324 137.61 257.593 138.812 262.917C142.478 279.882 151.978 295.024 165.659 305.705C185.068 320.61 208.812 327.48 232.639 331.387C234.834 331.746 244.783 333.918 246.447 333.384C248.897 339.818 249.804 347.247 251.474 351.649L264.157 350.383C270.329 350.682 282.754 349.561 287.53 353.434C286.181 353.879 285.37 353.876 283.977 353.986C287.415 354.386 294.328 354.521 296.407 356.873C297.065 363.394 274.273 360.149 268.807 360.79C270.654 365.088 272.416 368.476 274.584 372.586C277.768 372.031 289.371 369.311 290.575 372.708C267.951 376.986 242.034 387.336 223.271 400.737C221.091 403.011 214.802 407.271 212.058 409.117C193.133 402.827 177.087 409.88 167.046 426.623C136.324 418.508 117.016 435.048 112.512 465.193C83.9032 470.202 77.4422 491.233 81.3642 517.47L83.2122 522.062C51.4682 507.971 31.4532 472.925 31.1442 438.885C30.9982 422.854 34.9162 410.491 42.9612 396.911C39.1632 396.132 28.0282 400.545 24.3472 401.928C33.6522 375.634 43.4972 361.236 63.4052 341.84C66.4822 337.978 69.1172 334.682 72.4842 331.037C66.3452 333.214 60.0792 335.656 53.9672 337.954C62.2222 326.185 72.0622 316.372 83.3192 307.398C87.1462 304.346 94.4292 300.152 97.7292 297.185L98.4552 296.52C98.5682 274.011 102.681 247.996 108.211 226.213Z" fill="url(#paint0_linear_878_3665)"/>
<path d="M63.4052 341.84C63.0072 345.995 58.7532 356.612 57.2652 361.128C44.1632 400.9 60.9872 436.627 101.117 448.825C114.71 421.95 134.521 411.313 164.41 414.51C176.779 405.295 183.416 401.681 198.882 399.171C195.946 388.823 194.676 385.527 188.997 376.693L204.361 371.442C210.935 378.228 219.143 391.23 223.307 399.779L223.271 400.737C221.091 403.011 214.802 407.271 212.058 409.117C193.133 402.827 177.087 409.88 167.046 426.623C136.324 418.508 117.016 435.048 112.512 465.193C83.9032 470.202 77.4422 491.233 81.3642 517.47L83.2122 522.062C51.4682 507.971 31.4532 472.925 31.1442 438.885C30.9982 422.854 34.9162 410.491 42.9612 396.911C39.1632 396.132 28.0282 400.545 24.3472 401.928C33.6522 375.634 43.4972 361.236 63.4052 341.84Z" fill="#343750"/>
<path d="M42.9611 396.91C43.2481 400.188 42.2901 404.438 41.7951 407.75C35.8211 447.798 49.4751 488.283 79.4361 515.722L81.3641 517.469L83.2121 522.061C51.4681 507.97 31.4531 472.924 31.1441 438.884C30.9981 422.853 34.9161 410.49 42.9611 396.91Z" fill="#6965D4"/>
<path d="M264.157 350.383C270.329 350.682 282.754 349.561 287.53 353.434C286.181 353.879 285.37 353.876 283.977 353.986C287.415 354.386 294.328 354.521 296.407 356.873C297.065 363.394 274.273 360.149 268.807 360.79C270.654 365.088 272.416 368.476 274.584 372.586C277.768 372.031 289.371 369.311 290.575 372.708C267.951 376.986 242.034 387.336 223.271 400.737L223.307 399.779C219.143 391.23 210.935 378.228 204.361 371.442L188.997 376.693L167.872 385.009C174.605 380.459 180.543 376.834 187.912 373.32C190.016 372.259 191.728 371.384 193.762 370.149C194.759 368.203 198.011 367.181 200.114 366.267C209.816 361.486 219.282 358.44 229.663 355.655C236.891 354.098 244.165 352.762 251.474 351.649L264.157 350.383Z" fill="#01004C"/>
<path d="M264.157 350.383C270.329 350.682 282.754 349.561 287.53 353.434C286.181 353.879 285.37 353.876 283.977 353.986C250.784 353.071 224.736 357.887 193.762 370.149C194.759 368.203 198.011 367.181 200.114 366.267C209.816 361.486 219.282 358.44 229.663 355.655C236.891 354.098 244.165 352.762 251.474 351.649L264.157 350.383Z" fill="#787C88"/>
<path d="M274.584 372.585C277.768 372.03 289.371 369.31 290.575 372.707C267.951 376.985 242.034 387.335 223.271 400.736L223.307 399.778C227.085 396.427 231.631 393.218 235.719 390.187C239.962 387.467 243.784 385.386 248.192 382.989C258.5 377.856 264.407 376.575 274.584 372.585Z" fill="url(#paint1_linear_878_3665)"/>
<path d="M223.157 370.954C228.036 372.673 244.243 379.973 248.192 382.99C243.784 385.387 239.962 387.468 235.719 390.188C231.557 382.757 228.332 377.743 223.157 370.954Z" fill="#343750"/>
<path d="M247.402 362.597L255.202 362.157C255.531 364.193 256.078 365.394 255.401 367.086C253.017 366.104 248.821 364.552 246.862 363.136L247.402 362.597Z" fill="#343750"/>
<path d="M121.25 325.316C128.713 324.491 133.915 323.625 141.629 323.66C165.289 323.767 186.786 334.468 207.707 344.416C211.706 346.317 226.871 353.554 229.663 355.654C219.282 358.439 209.816 361.485 200.114 366.266C198.011 367.18 194.759 368.202 193.762 370.148C191.728 371.383 190.016 372.258 187.912 373.319C184.058 369.536 180.951 364.628 177.163 360.753C163.222 346.495 143.66 339.322 124.591 335.044C121.132 334.268 117.81 333.95 114.471 332.68C111.44 332.988 103.043 332.945 99.5762 333.091C103.407 331.308 107.685 329.648 111.618 328.034C114.663 327.031 118.129 326.164 121.25 325.316Z" fill="#01004C"/>
<path d="M114.471 332.681C146.264 329.552 178.326 343.414 200.114 366.267C198.011 367.181 194.759 368.203 193.762 370.149C191.728 371.384 190.016 372.259 187.912 373.32C184.058 369.537 180.951 364.629 177.163 360.754C163.222 346.496 143.66 339.323 124.591 335.045C121.132 334.269 117.81 333.951 114.471 332.681Z" fill="#343750"/>
<path d="M111.618 328.034L110.949 326.138L111.507 325.342C113.519 325.027 118.845 325.281 121.25 325.316C118.129 326.164 114.663 327.031 111.618 328.034Z" fill="#343750"/>
<path d="M585.144 327.55C593.09 318.027 618.155 327.295 627.088 331.592L626.523 332.176C629.169 335.233 632.356 338.322 634.75 341.41C652.751 357.575 665.679 379.302 674.229 401.729C670.702 400.501 657.77 395.597 655.444 396.585L655.736 397.275C668.225 420.933 670.583 440.196 662.529 466.297C655.33 490.316 638.626 510.348 616.292 521.746C615.967 521.9 615.643 522.054 615.318 522.207L616.949 517.646L617.563 513.954C619.968 498.751 616.805 481.143 603.561 471.685C597.699 467.499 592.678 466.386 585.706 465.278C585.356 461.218 584.566 457.209 583.35 453.32C575.976 429.888 554.746 419.345 531.536 427.037C518.597 408.173 507.851 404.492 485.472 408.928L473.452 399.851L473.381 398.667L474.306 398.876C475.83 397.719 477.376 394.629 478.426 392.923C482.956 385.564 487.745 377.72 493.778 371.462C498.876 373.048 503.944 374.73 508.978 376.509L530.311 384.853C523.549 379.934 517.936 376.758 510.534 373.172C525.525 352.477 541.771 343.738 566.341 336.702C570.893 335.399 579.056 335.027 582.732 332.875L598.022 332.846C593.689 330.501 589.788 329.136 585.144 327.55Z" fill="#4E535F"/>
<path d="M634.75 341.41C652.751 357.575 665.679 379.302 674.229 401.729C670.702 400.501 657.77 395.597 655.444 396.585L655.736 397.275C668.225 420.933 670.583 440.196 662.529 466.297C655.33 490.316 638.626 510.348 616.292 521.746C615.967 521.9 615.643 522.054 615.318 522.207L616.949 517.646L617.563 513.954C619.968 498.751 616.805 481.143 603.561 471.685C597.699 467.499 592.678 466.386 585.706 465.278C585.356 461.218 584.566 457.209 583.35 453.32C575.976 429.888 554.746 419.345 531.536 427.037C518.597 408.173 507.851 404.492 485.472 408.928L473.452 399.851L473.381 398.667L474.306 398.876C475.83 397.719 477.376 394.629 478.426 392.923C482.956 385.564 487.745 377.72 493.778 371.462C498.876 373.048 503.944 374.73 508.978 376.509C505.443 379.416 500.598 394.772 499.228 399.641C513.749 400.493 522.509 406.163 533.659 414.666C563.789 411.779 583.324 421.828 596.776 449.115C638.31 437.95 653.766 398.298 640.812 359.552C639.351 355.181 635.013 345.202 634.75 341.41Z" fill="#343750"/>
<path d="M655.736 397.274C668.225 420.932 670.583 440.195 662.529 466.296C655.33 490.315 638.626 510.347 616.292 521.745C615.967 521.899 615.643 522.053 615.318 522.206L616.949 517.645C648.04 488.474 661.582 451.688 656.686 409.1C656.277 405.544 655.414 400.77 655.736 397.274Z" fill="#6965D4"/>
<path d="M114.83 166.561C119.648 155.069 128.272 140.461 135.242 130.204C162.716 88.9255 201.888 56.7875 247.74 37.9075C313.9 11.2045 387.92 11.6585 453.748 39.1695C516.11 65.4445 564.85 117.585 589.545 180.12C602.444 212.786 611.548 254.646 612.181 289.924C646.892 316.103 670.556 349.902 677.282 393.678C677.763 396.81 678.192 400.438 678.27 403.578L674.229 401.728C665.679 379.301 652.751 357.574 634.75 341.409C632.356 338.321 629.169 335.232 626.523 332.175L627.088 331.591C633.079 333.736 639.041 335.964 644.971 338.272C642.256 334.776 640.454 331.993 637.433 328.438C626.044 315.037 613.789 306.671 599.577 296.771C599.12 268.267 595.893 248.843 588.814 221.458C573.345 157.633 533.549 102.378 477.916 67.4795C422.704 33.1835 356.081 22.3595 292.851 37.4115C219.379 54.7685 158.304 105.086 126.691 173.647C118.772 190.821 112.998 207.948 108.211 226.212C102.681 247.995 98.5684 274.01 98.4554 296.519L97.7294 297.184C94.4294 300.151 87.1464 304.345 83.3194 307.397C72.0624 316.371 62.2224 326.184 53.9674 337.953C60.0794 335.655 66.3454 333.213 72.4844 331.036C69.1174 334.681 66.4824 337.977 63.4054 341.839C43.4974 361.235 33.6524 375.633 24.3474 401.927C23.1024 402.674 21.0404 403.462 19.6304 404.052C19.7184 403.351 19.8024 402.65 19.8834 401.948C24.4174 363.537 39.0604 333.752 66.7184 306.265C72.8454 300.176 79.2114 295.362 85.9584 290.038C87.7134 260.83 91.1924 233.818 100.077 205.783C101.818 200.286 104.057 192.429 106.416 187.268C108.002 181.711 112.254 171.619 114.83 166.561Z" fill="url(#paint2_linear_878_3665)"/>
<path d="M114.83 166.562C115.38 168.054 114.2 169.978 113.9 172.128C113.106 177.803 109.176 181.679 107.188 187.29L106.416 187.269C108.002 181.712 112.254 171.62 114.83 166.562Z" fill="#9794E9"/>
<path d="M588.814 221.459C595.893 248.844 599.12 268.268 599.577 296.772C613.789 306.672 626.044 315.038 637.433 328.439C640.454 331.994 642.256 334.777 644.971 338.273C639.041 335.965 633.079 333.737 627.088 331.592C618.155 327.295 593.09 318.027 585.144 327.55C589.788 329.136 593.689 330.501 598.022 332.846L582.732 332.875C579.056 335.027 570.893 335.399 566.341 336.702C541.771 343.738 525.525 352.477 510.534 373.172C507.4 371.838 503.344 370.24 500.421 368.672C499.548 367.117 500.061 367.836 498.124 366.757C488.286 361.759 479.537 358.826 469.028 355.673C461.163 353.833 454.969 352.646 447.024 351.631C448.832 345.456 449.712 338.61 452.235 332.53C452.745 333.092 453.515 333.474 454.305 333.377C507.842 326.797 558.703 306.458 561.751 245.059C567.321 258.289 567.482 262.474 568.149 276.439C576.203 263.872 581.712 255.158 585.226 239.893C586.12 236.01 587.527 223.954 588.814 221.459Z" fill="#343750"/>
<path d="M469.028 355.673C469.461 355.386 469.894 355.099 470.328 354.812C501.371 338.946 532.345 320.083 568.753 324.168C574.212 324.781 579.812 326.226 585.144 327.55C589.788 329.136 593.689 330.501 598.022 332.846L582.732 332.875C579.056 335.027 570.893 335.399 566.341 336.702C541.771 343.738 525.525 352.477 510.534 373.172C507.4 371.838 503.344 370.24 500.421 368.672C499.548 367.117 500.061 367.836 498.124 366.757C488.286 361.759 479.537 358.826 469.028 355.673Z" fill="#01004C"/>
<path d="M498.124 366.757C520.485 343.39 549.927 330.044 582.732 332.875C579.056 335.027 570.893 335.399 566.341 336.702C541.771 343.738 525.525 352.477 510.534 373.172C507.4 371.838 503.344 370.24 500.421 368.672C499.548 367.117 500.061 367.836 498.124 366.757Z" fill="#343750"/>
<path d="M408.932 354.553L408.144 354.241L407.894 353.629C414.266 349.684 432.08 350.931 439.657 350.851C442.406 351.021 444.278 351.124 447.024 351.631C454.969 352.646 461.163 353.833 469.028 355.673C479.537 358.826 488.286 361.759 498.124 366.757C500.061 367.836 499.548 367.117 500.421 368.672C503.344 370.24 507.4 371.838 510.534 373.172C517.936 376.758 523.549 379.934 530.311 384.853L508.978 376.509C503.944 374.73 498.876 373.048 493.778 371.462C487.745 377.72 482.956 385.564 478.426 392.923C477.376 394.629 475.83 397.719 474.306 398.876L473.381 398.667L473.452 399.851C453.302 385.612 431.664 377.567 407.7 372.628C409.388 369.736 421.151 371.698 423.95 372.626C424.157 370.757 428.163 363.003 429.272 360.501C425.458 360.688 400.214 363.805 402.266 356.715C404.193 355.18 406.332 355.237 408.932 354.553Z" fill="#01004C"/>
<path d="M408.932 354.553L408.144 354.241L407.894 353.629C414.266 349.684 432.08 350.931 439.657 350.851C442.406 351.021 444.278 351.124 447.024 351.631C454.969 352.646 461.163 353.833 469.028 355.673C479.537 358.826 488.286 361.759 498.124 366.757C500.061 367.836 499.548 367.117 500.421 368.672C472.187 356.39 439.411 352.594 408.932 354.553Z" fill="#787C88"/>
<path d="M407.7 372.627C409.388 369.735 421.151 371.697 423.95 372.625C434.12 375.273 440.137 377.721 449.546 382.585L462.343 390.244C465.881 392.858 470.105 395.82 473.381 398.666L473.452 399.85C453.302 385.611 431.664 377.566 407.7 372.627Z" fill="url(#paint3_linear_878_3665)"/>
<path d="M449.546 382.585C458.16 378.837 467.291 373.951 475.685 370.487C470.323 377.34 466.723 382.681 462.343 390.244L449.546 382.585Z" fill="#343750"/>
<path d="M443.339 361.588C446.56 361.792 449.773 362.108 452.972 362.537L447.219 365.137L441.74 367.616C442.113 365.214 442.601 363.875 443.339 361.588Z" fill="#343750"/>
<path d="M488.125 198.88C499.121 192.652 509.264 190.59 521.913 190.199C515.179 196.073 514.031 196.524 508.943 203.519C502.942 211.771 502.97 237.135 499.987 239.469L499.576 239.023C499.536 222.105 497.242 212.859 488.125 198.88Z" fill="#343750"/>
<path d="M176.784 190.207C189.599 190.388 198.567 191.994 209.739 198.856C200.513 213.779 199.151 223.033 198.933 240.093C198.355 236.023 196.689 231.236 195.95 226.708C192.629 206.357 192.169 203.163 176.784 190.207Z" fill="#343750"/>
<path d="M439.657 350.85C437.798 350.605 436.961 350.48 435.164 349.991C434.427 342.54 451.858 322.03 458.292 317.067C455.903 322.529 454.235 326.924 452.235 332.529C449.712 338.609 448.832 345.455 447.024 351.63C444.278 351.123 442.406 351.02 439.657 350.85Z" fill="#01004C"/>
<path d="M245.405 321.846C253.59 330.643 259.453 339.281 264.157 350.383L251.474 351.649C249.804 347.247 248.897 339.818 246.447 333.384C245.331 329.898 243.788 326.049 242.484 322.586L245.405 321.846Z" fill="#01004C"/>
<path d="M239.528 316.203C241.697 318.018 243.429 319.839 245.405 321.846L242.484 322.586L239.528 316.203Z" fill="#150D3A"/>
<path d="M455.923 177.602L456.373 177.597L456.511 178.068C440.351 184.489 426.157 196.813 413.856 208.89C403.341 219.214 389.864 238.06 378.964 216.296C377.409 211.452 377.307 207.635 377.154 202.59C381.961 213.58 387.028 219.294 398.14 209.447C414.797 194.688 432.977 180.139 455.923 177.602Z" fill="#787C88"/>
<path d="M243.677 179.04C255.672 177.48 278.39 190.545 287.204 198.435C292.61 203.275 300.447 210.789 306.934 213.634C309.573 214.792 313.108 213.172 315.537 211.948C317.982 208.768 319.434 205.846 321.037 202.222C321.054 206.507 320.742 210.587 319.686 214.744L319.496 215.276C310.233 240.607 291.235 215.729 281.516 206.025C277.249 201.733 272.779 197.647 268.121 193.783C260.417 187.457 252.884 182.777 243.677 179.04Z" fill="#787C88"/>
<path d="M417.577 405.811C429.37 415.803 439.282 427.106 448.466 439.475C442.844 451.616 442.137 457.88 441.695 470.81C428.703 489.309 402.351 500.528 381.189 506.226C342.273 516.705 293.64 506.139 263.573 479.114C260.401 475.997 258.728 474.164 256.218 470.536C256.298 456.378 255.465 452.301 250.063 439.463C259.184 427.116 268.643 415.881 280.64 406.174C286.64 412.394 290.724 415.707 298.004 420.287C301.806 435.125 311.779 445.453 325.78 451.322C340.759 457.434 357.537 457.427 372.511 451.304C388.118 444.784 394.805 434.841 400.948 420.085C408.061 415.257 412.041 412.29 417.577 405.811Z" fill="#343750"/>
<path d="M338.569 275.999C345.799 271.376 353.123 271.634 360.179 276.506C371.571 283.316 383.746 298.553 387.673 311.118C389.781 317.865 382.07 343.683 379.873 351.723C376.436 349.851 370.27 346.115 366.6 345.839C374.014 353.692 390.806 367.268 390.607 379.109C390.599 379.487 390.583 379.865 390.56 380.243C385.472 394.402 367.551 408.519 353.865 413.207C339.105 418.263 311.43 393.403 307.544 379.912C308.034 367.227 323.402 354.499 331.417 346.138C328.239 346.176 321.7 349.773 318.503 351.359C316.36 342.78 308.11 317.387 310.313 310.585C314.087 298.934 327.727 282.084 338.569 275.999Z" fill="#E9BBCD"/>
<path d="M329.438 368.161C346.391 363.905 353.777 364.173 370.736 368.719C379.461 372.132 383.539 373.883 390.56 380.244C385.472 394.403 367.551 408.52 353.865 413.208C339.105 418.264 311.43 393.404 307.544 379.913C310.599 379.114 314.959 374.379 317.741 372.95C321.155 371.196 325.789 369.553 329.438 368.161Z" fill="#BE85AB"/>
<path d="M372.892 380.492C375.308 380.657 379.766 381.226 380.445 383.881C378.996 385.425 376.659 385.927 374.622 387.451C370.791 390.317 367.939 394.379 364.992 398.148L361.198 402.948C361.129 392.911 361.999 383.883 372.892 380.492Z" fill="#01004C"/>
<path d="M320.917 381.017C321.433 380.952 321.949 380.894 322.467 380.843C335.91 379.575 338.538 398.816 336.127 401.545L335.179 400.56C330.559 394.529 325.839 387.365 318.81 384.594C317.875 384.226 317.848 384.117 317.084 383.416C317.99 382.18 319.477 381.701 320.917 381.017Z" fill="#01004C"/>
<path d="M318.503 351.36C316.36 342.781 308.11 317.388 310.313 310.586C314.087 298.935 327.727 282.085 338.569 276C335.892 281.917 332.842 288.777 331.237 295.041C327.358 310.175 327.635 331.155 331.417 346.139C328.239 346.177 321.7 349.774 318.503 351.36Z" fill="#BE85AB"/>
<path d="M360.179 276.507C371.571 283.317 383.746 298.554 387.673 311.119C389.781 317.866 382.07 343.684 379.873 351.724C376.436 349.852 370.27 346.116 366.6 345.84C368.257 340.852 369.067 333.112 369.449 327.904C371.06 305.963 368.325 295.992 360.179 276.507Z" fill="#BE85AB"/>
<path d="M329.438 368.161C327.864 363.966 337.072 361.228 340.035 360.211C347.041 357.808 354.425 358.05 361.345 360.52C365.689 362.07 369.861 363.254 371.424 367.761C371.035 368.604 371.312 368.324 370.736 368.719C353.777 364.173 346.391 363.905 329.438 368.161Z" fill="#F9D2E0"/>
<path d="M134.791 447.828C146.366 431.869 169.848 440.223 180.963 452.17C184.445 456.771 184.977 460.556 187.377 464.533C190.064 471.505 191.4 476.93 191.783 484.496C175.078 474.194 160.07 473.48 152.91 495.007C151.548 503.62 151.472 507.427 152.418 516.033C146.63 511.669 142.099 507.53 137.276 502.065C135.96 500.575 133.838 496.994 132.568 496.901L132.404 497.011C131.548 494.356 130.606 493.431 128.408 491.877C129.16 489.973 127.052 482.351 126.77 479.373C125.703 468.108 127.802 456.846 134.791 447.828Z" fill="#E9BBCD"/>
<path d="M128.408 491.877C129.16 489.973 127.052 482.351 126.77 479.373C125.703 468.108 127.802 456.846 134.791 447.828C134.294 465.888 135.566 476.331 148.581 490.727C149.706 491.972 151.624 494.033 152.91 495.007C151.548 503.62 151.472 507.427 152.418 516.033C146.63 511.669 142.099 507.53 137.276 502.065C135.96 500.575 133.838 496.994 132.568 496.901L132.404 497.011C131.548 494.356 130.606 493.431 128.408 491.877Z" fill="#BE85AB"/>
<path d="M517.27 452.22C529.539 440.408 548.595 432.104 562.527 446.559C569.695 455.825 572.873 467.566 571.358 479.183C570.816 483.397 568.532 489.58 568.739 492.942C568.28 493.47 566.653 495.416 566.227 495.761C565.444 496.395 560.652 501.937 559.511 503.223C554.707 508.636 551.156 511.755 545.477 516.206C546.197 507.326 546.174 503.971 544.98 495.101C537.321 472.878 524.147 474.425 506.701 484.142C507.162 476.293 508.479 471.474 510.889 464.008C511.392 463.717 511.342 463.811 511.572 462.932C512.598 459.004 514.872 455.512 517.27 452.22Z" fill="#E9BBCD"/>
<path d="M562.527 446.559C569.695 455.825 572.873 467.566 571.358 479.183C570.816 483.397 568.532 489.58 568.739 492.942C568.28 493.47 566.653 495.416 566.227 495.761C565.444 496.395 560.652 501.937 559.511 503.223C554.707 508.636 551.156 511.755 545.477 516.206C546.197 507.326 546.174 503.971 544.98 495.101C545.923 494.413 550.914 489.265 551.808 488.164C563.197 474.146 563.454 463.145 562.527 446.559Z" fill="#BE85AB"/>
<path d="M170.065 490.78C175.275 489.762 180.148 491.537 184.508 494.44C203.149 506.852 206.431 534.256 213.721 554.469C218.012 566.367 221.404 573.773 226.155 585.101L221.423 581.29C200.032 572.542 143.757 514.758 170.065 490.78Z" fill="#787C88"/>
<path d="M221.423 581.289C200.032 572.541 143.757 514.757 170.065 490.779C176.25 513.595 192.192 542.359 205.812 561.622C208.613 565.584 220.411 579.238 221.423 581.289Z" fill="#343750"/>
<path d="M472.451 584.309C476.97 574.629 480.944 564.703 484.354 554.578C486.823 547.197 489.23 539.794 491.574 532.372C495.362 520.455 497.936 509.227 507.041 500.007C513.024 493.949 518.855 490.466 527.545 490.322C532.207 494.123 533.543 498.274 534.375 504.189C536.635 520.272 525.432 535.156 516.053 547.169C507.737 557.821 489.186 575.083 476.713 581.289L472.451 584.309Z" fill="#787C88"/>
<path d="M527.545 490.322C532.207 494.123 533.543 498.274 534.375 504.189C536.635 520.272 525.432 535.156 516.053 547.169C507.737 557.821 489.186 575.083 476.713 581.289C477.435 578.847 484.612 570.98 486.516 568.694C505.49 545.911 519.152 518.593 527.545 490.322Z" fill="#343750"/>
<path d="M495.589 422.288L499.078 421.908C501.99 421.874 502.72 421.87 505.544 422.487C513.464 425.553 519.332 431.954 521.179 440.327C520.014 443.81 517.344 449.233 517.27 452.22C514.872 455.512 512.598 459.004 511.572 462.932C511.342 463.811 511.392 463.717 510.889 464.008C499.903 474.279 498.769 483.732 494.437 496.89C493.686 499.17 487.991 506.312 486.259 509.361L480.563 509.016C493.159 496.199 494.983 482.997 489.87 465.907C482.726 448.923 471.906 448.888 457.061 456.429C459.787 448.565 461.315 444.899 467.068 438.413C473.347 431.332 485.898 422.778 495.589 422.288Z" fill="#E9BBCD"/>
<path d="M505.544 422.486C513.464 425.552 519.332 431.953 521.179 440.326C520.014 443.809 517.344 449.232 517.27 452.219C514.872 455.511 512.598 459.003 511.572 462.931C511.342 463.81 511.392 463.716 510.889 464.007C499.903 474.278 498.769 483.731 494.437 496.889C493.686 499.169 487.991 506.311 486.259 509.36L480.563 509.015C493.159 496.198 494.983 482.996 489.87 465.906C504.168 458.661 507.603 447.194 507.437 432.108C507.015 430.396 506.52 430.134 505.379 428.652C506.022 427.64 505.617 423.864 505.544 422.486Z" fill="#BE85AB"/>
<path d="M495.589 422.288L499.078 421.908C501.99 421.874 502.72 421.87 505.544 422.487C505.617 423.865 506.022 427.641 505.379 428.653C506.52 430.135 507.015 430.397 507.437 432.109C503.67 429.218 499.549 425.404 495.589 422.288Z" fill="#150D3A"/>
<path d="M499.078 421.908C501.99 421.874 502.72 421.87 505.544 422.487C505.617 423.865 506.022 427.641 505.379 428.653L499.078 421.908Z" fill="#E9BBCD"/>
<path d="M193.083 422.29L199.308 421.395C197.428 423.416 195.201 425.929 193.269 427.829L190.543 431.417L190.649 432.056C193.218 430.823 199.835 424.103 203.301 421.609C220.838 426.787 236.454 437.815 241.047 456.282C227.331 449.736 216.811 448.395 209.235 464.163C208.95 464.758 208.671 465.355 208.398 465.956C205.52 475.552 205.181 480.971 206.787 490.817C205.502 490.602 204.404 490.405 203.123 490.129C202.332 490.719 202.578 490.339 202.337 491.234C199.605 479.878 195.279 473.197 188.022 464.352L187.377 464.533C184.977 460.556 184.445 456.771 180.963 452.17C180.822 448.088 175.25 443.142 178.351 436.2C181.369 429.443 186.523 425.149 193.083 422.29Z" fill="#E9BBCD"/>
<path d="M193.083 422.29L199.308 421.395C197.428 423.416 195.201 425.929 193.269 427.829L190.543 431.417L190.649 432.056C190.438 446.512 193.82 459.613 208.398 465.956C205.52 475.552 205.181 480.971 206.787 490.817C205.502 490.602 204.404 490.405 203.123 490.129C202.332 490.719 202.578 490.339 202.337 491.234C199.605 479.878 195.279 473.197 188.022 464.352L187.377 464.533C184.977 460.556 184.445 456.771 180.963 452.17C180.822 448.088 175.25 443.142 178.351 436.2C181.369 429.443 186.523 425.149 193.083 422.29Z" fill="#BE85AB"/>
<path d="M193.083 422.29L199.308 421.395C197.428 423.416 195.201 425.929 193.269 427.829C192.479 425.561 192.763 424.713 193.083 422.29Z" fill="#E9BBCD"/>
<path d="M245.321 214.917C254.033 214.352 273.749 236.856 278.057 243.959C275.52 256.53 269.863 262.81 257.57 267.033C251.061 267.938 246.231 268.03 240.06 264.915C233.333 261.534 228.262 255.573 226.004 248.39C221.076 232.843 229.859 219.113 245.321 214.917Z" fill="#9794E9"/>
<path d="M242.212 223.191C246.623 222.527 250.748 225.534 251.466 229.936C252.184 234.339 249.229 238.5 244.836 239.273C241.945 239.782 239.004 238.696 237.137 236.431C235.27 234.166 234.766 231.073 235.816 228.332C236.866 225.591 239.31 223.627 242.212 223.191Z" fill="#FCFCFB"/>
<path d="M450.91 214.272C464.42 217.831 473.643 225.889 473.57 240.885C473.542 248.05 470.595 254.894 465.409 259.838C458.749 266.201 452.032 267.715 443.291 267.467C428.935 264.539 423.464 257.13 420.292 243.501C426.728 233.342 440.755 220.783 450.91 214.272Z" fill="#9794E9"/>
<path d="M454.224 223.128C458.514 222.717 462.361 225.773 462.933 230.044C463.505 234.316 460.598 238.276 456.351 239.009C453.457 239.509 450.521 238.386 448.699 236.083C446.877 233.78 446.46 230.665 447.612 227.964C448.764 225.263 451.3 223.407 454.224 223.128Z" fill="#FCFCFB"/>
<path d="M108.879 480.571C112.844 479.794 114.735 479.866 118.817 479.879C121.691 483.771 125.041 488.508 128.408 491.877C130.606 493.431 131.548 494.356 132.404 497.011C133.744 508.479 137.68 517.134 146.5 525.244C150.615 529.027 157.009 530.442 158.752 535.676L158.244 536.216C156.214 535.896 152.636 531.904 150.372 530.468C141.194 524.645 127.599 520.421 117.824 526.858C113.529 531.592 112.506 534.208 111.292 540.305C105.887 535.144 101.545 528.975 98.5114 522.145C92.2954 507.949 91.9734 487.355 108.879 480.571Z" fill="#E9BBCD"/>
<path d="M111.292 540.304C105.887 535.143 101.545 528.974 98.5114 522.144C92.2954 507.948 91.9734 487.354 108.879 480.57C105.001 496.459 105.56 514.49 117.824 526.857C113.529 531.591 112.506 534.207 111.292 540.304Z" fill="#BE85AB"/>
<path d="M580.203 479.956C583.149 480.136 585.82 480.286 588.751 480.674C604.91 485.829 605.846 504.289 601.425 518.075C598.604 526.869 593.582 533.981 587.22 540.588C585.704 534.901 584.912 531.095 580.682 526.733C572.223 521.385 562.805 523.172 554.048 526.762C548.535 529.021 545.071 532.408 540.755 536.326L539.811 536.263L539.559 535.562C540.03 533.553 540.981 532.348 542.083 530.608C557.924 523.419 563.868 512.395 566.227 495.761C566.653 495.416 568.28 493.47 568.739 492.942C573.006 488.756 576.394 484.539 580.203 479.956Z" fill="#E9BBCD"/>
<path d="M588.751 480.674C604.91 485.829 605.846 504.289 601.425 518.075C598.604 526.869 593.582 533.981 587.22 540.588C585.704 534.901 584.912 531.095 580.682 526.733C582.817 525.082 585.9 519.847 587.027 517.292C592.257 505.433 593.295 492.846 588.751 480.674Z" fill="#BE85AB"/>
<path d="M223.854 464.181C238.456 459.353 252.195 488.664 255.295 499.224C258.549 510.309 262.585 533.674 258.795 544.611L258.348 544.008C252.403 533.916 247.183 525.725 239.587 516.666C233.728 509.312 226.325 502.557 221.238 494.67C215.264 485.407 216.68 472.214 223.854 464.181Z" fill="#343750"/>
<path d="M223.854 464.181C238.456 459.353 252.195 488.664 255.295 499.224C258.549 510.309 262.585 533.674 258.795 544.611L258.348 544.008C255.477 516.356 240.862 486.028 223.854 464.181Z" fill="#787C88"/>
<path d="M440.311 543.401L439.888 544.415L439.348 544.436C437.792 533.448 437.992 522.283 439.939 511.357C442.373 498.022 456.081 459.657 474.409 463.618C479.153 469.274 481.013 476.818 480.213 484.254C478.672 498.575 459.93 512.779 451.739 525.27C447.858 531.189 443.85 538.237 440.311 543.401Z" fill="#343750"/>
<path d="M440.311 543.401L439.888 544.415L439.348 544.436C437.792 533.448 437.992 522.283 439.939 511.357C442.373 498.022 456.081 459.657 474.409 463.618C472.538 466.602 470.506 469.188 468.498 472.092C455.872 490.363 446.36 511.231 441.603 532.972C440.986 535.789 440.062 540.619 440.311 543.401Z" fill="#787C88"/>
<path d="M127.316 534.279C152.876 535.168 147.765 547.382 157.942 566.201C162.907 575.381 168.712 583.356 175.718 591.089C174.39 590.517 172.018 589.404 170.732 588.999C161.522 587.059 148.667 579.268 141.533 573.28C131.9 565.194 114.932 546.467 127.316 534.279Z" fill="#787C88"/>
<path d="M170.732 588.999C161.522 587.059 148.667 579.268 141.533 573.28C131.9 565.194 114.932 546.467 127.316 534.279C135.872 552.225 144.747 565.568 159.278 579.383C162.002 581.972 169.487 586.943 170.732 588.999Z" fill="#343750"/>
<path d="M525.651 589.189L524.008 589.786L523.889 589.31C530.762 581.618 534.894 575.416 540.119 566.518C550.07 549.573 545.977 534.684 570.256 534.681C580.002 541.254 574.258 552.372 568.898 560.022C559.23 573.821 542.793 583.969 526.908 589.051C526.565 589.16 526.027 589.171 525.651 589.189Z" fill="#787C88"/>
<path d="M570.256 534.681C580.002 541.254 574.258 552.372 568.898 560.022C559.23 573.821 542.793 583.969 526.908 589.051C526.565 589.16 526.027 589.171 525.651 589.189C527.586 587.135 534.781 582.331 537.796 579.601C551.717 567.133 562.788 551.812 570.256 534.681Z" fill="#343750"/>
<path d="M326.544 419.992C330.339 421.039 335.71 424.259 340.098 425.845C352.304 430.258 360.031 425.225 370.85 420.028C375.616 420.712 380.862 421.868 385.79 422.633C381.775 428.847 379.068 431.909 373.18 436.351C359.513 444.188 342.528 444.845 328.168 438.201C320.799 434.791 316.649 429.722 312.425 423.022C318.287 422.279 320.833 421.655 326.544 419.992Z" fill="#343750"/>
<path d="M285.825 389.655C289.149 387.925 290.565 386.403 294.179 388.046C280.124 397.803 270.759 405.321 260.223 419.277C256.632 424.832 253.07 430.405 249.536 435.996C248.333 417.723 246.373 414.076 239.986 397.138C246.297 394.222 253.249 391.052 259.788 388.782C266.07 392.654 268.52 394.721 273.955 399.805C277.658 396.135 281.625 392.743 285.825 389.655Z" fill="#343750"/>
<path d="M285.825 389.655C289.149 387.925 290.565 386.403 294.179 388.046C280.124 397.803 270.759 405.321 260.223 419.277L259.982 418.617C260.712 415.093 270.896 403.286 273.955 399.805C277.658 396.135 281.625 392.743 285.825 389.655Z" fill="#787C88"/>
<path d="M404.104 388.031C407.844 386.556 408.615 387.383 411.839 389.415C416.528 392.606 420.098 395.773 424.15 399.752C428.534 395.646 434.485 391.473 439.941 388.951C444.448 390.851 454.421 394.84 458.272 397.329C452.23 410.945 449.201 420.516 448.507 435.78C444.918 429.764 441.476 424.94 437.862 419.18C429.388 407.898 416.376 395.348 404.104 388.031Z" fill="#343750"/>
<path d="M404.104 388.031C407.844 386.556 408.615 387.383 411.839 389.415C416.528 392.606 420.098 395.773 424.15 399.752C427.7 403.527 436.369 413.954 438.137 418.583L437.862 419.18C429.388 407.898 416.376 395.348 404.104 388.031Z" fill="#787C88"/>
<path d="M406.043 376.41C408.342 376.536 415.873 379.36 418.464 380.251C416.159 384.146 415.096 386.246 411.839 389.414C408.615 387.382 407.844 386.555 404.104 388.03C402.612 388.016 402.012 387.978 401.252 389.145C401.704 391.503 405.008 393.839 406.892 395.391C398.921 403.298 393.102 405.741 382.013 406.546C391.797 398.092 396.067 391.757 398.707 379.368C400.83 379.286 404.849 378.19 406.043 376.41Z" fill="#343750"/>
<path d="M293.673 372.552C293.816 375.827 293.724 375.357 291.093 377.679L290.812 378.738C293.591 381.843 295.594 379.079 298.383 378.057L299.582 375.896C299.486 389.553 306.421 396.41 315.337 405.952C304.787 405.363 299.037 403.447 291.546 395.59C293.786 393.764 295.621 392.487 297.136 389.992C297.154 388.453 297.443 389.068 296.503 388.003C296.02 388.001 294.558 387.952 294.179 388.046C290.565 386.403 289.149 387.925 285.825 389.655C283.665 386.352 281.942 383.816 279.532 380.705C282.709 379.681 287.257 378.411 290.111 376.9C292.822 375.464 293.02 374.921 293.673 372.552Z" fill="#343750"/>
<path d="M266.93 494.894C270.427 496.394 277.142 501.131 281.069 503.052C287.084 505.995 292.589 507.986 298.869 510.246C289.451 510.361 280.032 510.413 270.613 510.402C269.89 504.81 268.566 500.262 266.93 494.894Z" fill="#515092"/>
<path d="M431.074 494.901C431.026 497.379 428.459 507.118 427.933 510.456C418.833 510.491 409.732 510.452 400.633 510.336C401.269 509.495 408.681 507.078 410.745 506.18C418.402 502.846 424.17 499.522 431.074 494.901Z" fill="url(#paint4_linear_878_3665)"/>
<path d="M471.793 404.54C474.937 406.235 478.218 408.441 481.25 410.387C477.613 412.494 474.394 414.517 470.864 416.803C469.114 418.101 467.365 419.503 465.645 420.848C467.325 414.359 468.798 410.474 471.793 404.54Z" fill="#343750"/>
<path d="M226.409 404.97C228.713 407.408 231.384 417.121 232.252 420.444L227.514 416.99C223.509 414.333 221.249 412.981 216.938 410.838C219.882 408.514 223.143 406.808 226.409 404.97Z" fill="#343750"/>
<path d="M202.337 491.234C202.578 490.339 202.332 490.719 203.123 490.129C204.404 490.405 205.502 490.602 206.787 490.817C209.045 499.395 211.416 502.273 216.83 509.225C214.699 509.214 213.133 509.658 211.704 507.945C207.479 502.88 202.66 497.988 202.337 491.234Z" fill="#E9BBCD"/>
<defs>
<linearGradient id="paint0_linear_878_3665" x1="183.942" y1="251.711" x2="115.719" y2="453.366" gradientUnits="userSpaceOnUse">
<stop stop-color="#2A2D4A"/>
<stop offset="1" stop-color="#5D6269"/>
</linearGradient>
<linearGradient id="paint1_linear_878_3665" x1="258.215" y1="386.728" x2="255.166" y2="380.281" gradientUnits="userSpaceOnUse">
<stop stop-color="#71757A"/>
<stop offset="1" stop-color="#6D748C"/>
</linearGradient>
<linearGradient id="paint2_linear_878_3665" x1="350.012" y1="421.055" x2="326.49" y2="19.6291" gradientUnits="userSpaceOnUse">
<stop stop-color="#635FD0"/>
<stop offset="1" stop-color="#A3A1EB"/>
</linearGradient>
<linearGradient id="paint3_linear_878_3665" x1="439.21" y1="389.272" x2="442.343" y2="378.555" gradientUnits="userSpaceOnUse">
<stop stop-color="#62696D"/>
<stop offset="1" stop-color="#73778E"/>
</linearGradient>
<linearGradient id="paint4_linear_878_3665" x1="412.215" y1="514.383" x2="424.879" y2="493.795" gradientUnits="userSpaceOnUse">
<stop stop-color="#3F416E"/>
<stop offset="1" stop-color="#56597F"/>
</linearGradient>
</defs>
</svg>
