<svg width="848" height="848" viewBox="0 0 848 848" fill="none" xmlns="http://www.w3.org/2000/svg">
<rect width="848" height="848" rx="128" fill="#0F0E2B"/>
<path d="M413.293 120.799C571.499 115.955 688.433 230.168 703.146 384.267C703.695 390.011 704.042 395.723 704.513 401.468C710.074 405.859 715.406 410.534 720.485 415.474C754.276 448.541 772.009 491.902 773.11 538.88C773.27 545.672 773.024 552.421 773.094 559.208C769.686 554.65 766.513 551.051 762.654 546.918C767.914 567.933 763.19 592.767 753.405 611.793C752.059 614.409 750.715 616.867 749.56 619.582L749.351 620.083C749.274 614.579 749.094 608.834 749.355 603.356C740.529 627.79 722.285 647.671 698.697 658.559C695.009 660.286 680.071 665.068 678.293 666.57C670.637 673.04 668.45 675.717 658.732 680.654C641.332 712.517 606.607 725.139 572.074 725.881C586.584 707.253 597.152 696.105 607.346 674.425C606.924 674.168 604.623 673.351 604.388 673.625C581.806 699.913 558.535 717.754 524.19 727.232C529.489 715.454 535.395 703.147 540.045 691.167C545.309 677.609 549.896 663.085 554.339 649.235C549.169 649.156 543.999 649.129 538.829 649.155C528.254 663.85 518.433 678.729 511.818 695.671C505.158 681.501 502.564 664.341 501.368 648.918C495.115 648.406 485.185 648.696 478.601 648.699L438.203 648.721C407.965 648.615 376.578 649.197 346.46 648.623C346.533 665.434 342.501 679.769 336.093 695.03C331.745 686.147 327.711 677.838 322.57 669.356C318.341 662.38 313.829 655.952 309.417 649.123C304.207 649.038 298.996 649.055 293.788 649.176C294.764 654.39 297.274 661.663 298.937 666.798C305.703 687.685 314.455 707.572 323.946 727.349C298.195 720.335 277.55 708.304 258.349 689.757C254.281 685.828 246.811 676.436 243.656 673.876C241.895 674.342 242.476 673.841 241.66 675.18C241.762 684.251 269.215 718.428 276.015 725.994C273.857 726.033 271.699 726.018 269.543 725.946C245.149 725.036 217.997 714.969 201.179 696.951C197.563 694.25 192.318 683.678 189.274 681.618C181.324 676.237 176.978 673.543 170.312 666.285C162.884 664.309 155.659 661.639 148.731 658.31C125.811 647.108 107.416 628.234 99.0035 603.954C98.6185 610.02 98.7555 614.702 99.3355 620.734C97.7645 618.069 96.2635 615.364 94.8325 612.622C85.0365 593.77 79.4445 567.25 85.9725 546.64C81.9605 550.794 78.4515 555.106 74.8985 559.636C73.6815 491.379 89.8475 446.199 142.882 401.633C144.773 385.619 145.847 371.487 148.799 355.335C173.271 221.45 275.416 127.001 413.293 120.799Z" fill="#01004C"/>
<path d="M189.666 287.212C194.484 275.72 203.108 261.112 210.078 250.855C237.552 209.576 276.724 177.438 322.576 158.558C388.736 131.855 462.756 132.309 528.584 159.82C590.946 186.095 639.686 238.236 664.381 300.771C677.28 333.437 686.384 375.297 687.017 410.575C721.728 436.754 745.392 470.553 752.118 514.329C752.599 517.461 753.028 521.089 753.106 524.229L749.065 522.379C745.538 521.151 732.606 516.247 730.28 517.235L730.572 517.925C743.061 541.583 745.419 560.846 737.365 586.947C730.166 610.966 713.462 630.998 691.128 642.396C690.803 642.55 690.479 642.704 690.154 642.857L691.785 638.296L692.399 634.604C694.804 619.401 691.641 601.793 678.397 592.335C672.535 588.149 667.514 587.036 660.542 585.928C660.192 581.868 659.402 577.859 658.186 573.97C650.812 550.538 629.582 539.995 606.372 547.687C593.433 528.823 582.687 525.142 560.308 529.578L548.288 520.501C528.138 506.262 506.5 498.217 482.536 493.278C480.433 493.784 481.101 493.214 480.045 494.541C480.191 495.944 480.156 495.851 480.879 497.061C479.685 498.841 475.666 499.937 473.543 500.019C473.402 492.11 469.754 486.089 466.02 479.417C467.87 471.643 470.426 464.054 473.654 456.744C482.133 437.717 501.125 412.717 523.164 406.825C526.836 406.252 530.667 407.081 534.354 406.971C557.386 406.28 573.88 396.948 583.157 375.851C576.065 381.497 573.918 383.184 565.309 385.695C571.275 375.796 572.759 370.958 574.412 359.674C574.372 342.756 572.078 333.51 562.961 319.531C573.957 313.303 584.1 311.241 596.749 310.85L596.66 310.462C591.983 307.427 583.369 305.114 577.827 304.421C544.482 300.254 513.494 320.119 493.686 345.511C487.295 353.702 481.461 362.956 473.113 369.247C471.358 370.565 467.321 371.613 465.102 372.25C444.191 366.713 444.19 341.892 446.983 324.655C441.087 334.339 439.568 339.338 437.996 350.476C426.04 345.97 422.189 345.416 410.045 350.184C409.623 341.788 406.579 331.059 400.954 324.767C403.439 339.108 403.876 356.569 392.51 367.34C376.215 382.783 359.213 350.466 349.869 340.154C329.446 317.617 301.813 300.359 270.285 304.411C265.95 304.968 254.414 307.888 251.291 310.608L251.62 310.857C264.435 311.038 273.403 312.644 284.575 319.506C275.349 334.429 273.987 343.683 273.769 360.743C275.894 372.191 276.95 376.034 283.306 386.143C275.561 384.368 271.871 381.534 265.56 376.718C269.606 387.934 278.194 396.349 288.85 401.565C297.021 405.427 305.916 406.962 314.909 407.022C317.195 407.038 323.715 406.53 325.41 407.072C350.106 414.967 369.225 441.698 377.768 465.14C379.569 470.082 380.939 474.48 381.934 478.985C378.61 484.993 375.686 489.687 374.418 496.546L373.219 498.707C370.43 499.729 368.427 502.493 365.648 499.388L365.929 498.329C368.56 496.007 368.652 496.477 368.509 493.202L365.411 493.358C342.787 497.636 316.87 507.986 298.107 521.387C295.927 523.661 289.638 527.921 286.894 529.767C267.969 523.477 251.923 530.53 241.882 547.273C211.16 539.158 191.852 555.698 187.348 585.843C158.739 590.852 152.278 611.883 156.2 638.12L158.048 642.712C126.304 628.621 106.289 593.575 105.98 559.535C105.834 543.504 109.752 531.141 117.797 517.561C113.999 516.782 102.864 521.195 99.1828 522.578C97.9378 523.325 95.8758 524.113 94.4658 524.703C94.5538 524.002 94.6378 523.301 94.7188 522.599C99.2528 484.188 113.896 454.403 141.554 426.916C147.681 420.827 154.047 416.013 160.794 410.689C162.549 381.481 166.028 354.469 174.913 326.434C176.654 320.937 178.893 313.08 181.252 307.919C182.838 302.362 187.09 292.27 189.666 287.212Z" fill="#4E535F"/>
<path d="M183.047 346.863C184.102 347.4 184.389 347.332 184.665 348.748C188.06 366.164 194.401 382.584 204.693 397.121C205.25 384.246 206.083 378.579 211.152 366.466C211.855 371.974 212.446 378.243 213.648 383.567C217.314 400.532 226.814 415.674 240.495 426.355C259.904 441.26 283.648 448.13 307.475 452.037C309.67 452.396 319.619 454.568 321.283 454.034C323.733 460.468 324.64 467.897 326.31 472.299L338.993 471.033C345.165 471.332 357.59 470.211 362.366 474.084C361.017 474.529 360.206 474.526 358.813 474.636C362.251 475.036 369.164 475.171 371.243 477.523C371.901 484.044 349.109 480.799 343.643 481.44C345.49 485.738 347.252 489.126 349.42 493.236C352.604 492.681 364.207 489.961 365.411 493.358C342.787 497.636 316.87 507.986 298.107 521.387C295.927 523.661 289.638 527.921 286.894 529.767C267.969 523.477 251.923 530.53 241.882 547.273C211.16 539.158 191.852 555.698 187.348 585.843C158.739 590.852 152.278 611.883 156.2 638.12L158.048 642.712C126.304 628.621 106.289 593.575 105.98 559.535C105.834 543.504 109.752 531.141 117.797 517.561C113.999 516.782 102.864 521.195 99.1826 522.578C108.488 496.284 118.333 481.886 138.241 462.49C141.318 458.628 143.953 455.332 147.32 451.687C141.181 453.864 134.915 456.306 128.803 458.604C137.058 446.835 146.898 437.022 158.155 428.048C161.982 424.996 169.265 420.802 172.565 417.835L173.291 417.17C173.404 394.661 177.517 368.646 183.047 346.863Z" fill="url(#paint0_linear_878_3579)"/>
<path d="M138.241 462.49C137.843 466.645 133.589 477.262 132.101 481.778C118.999 521.55 135.823 557.277 175.953 569.475C189.546 542.6 209.357 531.963 239.246 535.16C251.615 525.945 258.252 522.331 273.718 519.821C270.782 509.473 269.512 506.177 263.833 497.343L279.197 492.092C285.771 498.878 293.979 511.88 298.143 520.429L298.107 521.387C295.927 523.661 289.638 527.921 286.894 529.767C267.969 523.477 251.923 530.53 241.882 547.273C211.16 539.158 191.852 555.698 187.348 585.843C158.739 590.852 152.278 611.883 156.2 638.12L158.048 642.712C126.304 628.621 106.289 593.575 105.98 559.535C105.834 543.504 109.752 531.141 117.797 517.561C113.999 516.782 102.864 521.195 99.1826 522.578C108.488 496.284 118.333 481.886 138.241 462.49Z" fill="#343750"/>
<path d="M117.797 517.561C118.084 520.839 117.126 525.089 116.631 528.401C110.657 568.449 124.311 608.934 154.272 636.373L156.2 638.12L158.048 642.712C126.304 628.621 106.289 593.575 105.98 559.535C105.834 543.504 109.752 531.141 117.797 517.561Z" fill="#6965D4"/>
<path d="M338.993 471.033C345.165 471.332 357.59 470.211 362.366 474.084C361.017 474.529 360.206 474.526 358.812 474.636C362.25 475.036 369.164 475.171 371.243 477.523C371.901 484.044 349.109 480.799 343.643 481.44C345.49 485.738 347.252 489.126 349.42 493.236C352.604 492.681 364.207 489.961 365.411 493.358C342.787 497.636 316.87 507.986 298.107 521.387L298.143 520.429C293.979 511.88 285.771 498.878 279.197 492.092L263.833 497.343L242.708 505.659C249.441 501.109 255.378 497.484 262.747 493.97C264.851 492.909 266.564 492.034 268.598 490.799C269.595 488.853 272.847 487.831 274.95 486.917C284.652 482.136 294.118 479.09 304.499 476.305C311.727 474.748 319.001 473.412 326.31 472.299L338.993 471.033Z" fill="#01004C"/>
<path d="M338.993 471.033C345.165 471.332 357.59 470.211 362.366 474.084C361.017 474.529 360.206 474.526 358.813 474.636C325.62 473.721 299.572 478.537 268.598 490.799C269.595 488.853 272.847 487.831 274.95 486.917C284.652 482.136 294.118 479.09 304.499 476.305C311.727 474.748 319.001 473.412 326.31 472.299L338.993 471.033Z" fill="#787C88"/>
<path d="M349.419 493.236C352.603 492.681 364.206 489.961 365.41 493.358C342.786 497.636 316.869 507.986 298.106 521.387L298.142 520.429C301.92 517.078 306.466 513.869 310.554 510.838C314.797 508.118 318.619 506.037 323.027 503.64C333.335 498.507 339.242 497.226 349.419 493.236Z" fill="url(#paint1_linear_878_3579)"/>
<path d="M297.993 491.604C302.872 493.323 319.079 500.624 323.028 503.641C318.62 506.038 314.798 508.119 310.555 510.839C306.393 503.408 303.168 498.393 297.993 491.604Z" fill="#343750"/>
<path d="M322.238 483.248L330.038 482.808C330.367 484.844 330.914 486.045 330.237 487.737C327.853 486.755 323.657 485.203 321.698 483.787L322.238 483.248Z" fill="#343750"/>
<path d="M196.086 445.967C203.549 445.142 208.751 444.276 216.465 444.311C240.125 444.418 261.622 455.119 282.543 465.067C286.542 466.968 301.707 474.205 304.499 476.305C294.118 479.09 284.652 482.136 274.95 486.917C272.847 487.831 269.595 488.853 268.598 490.799C266.564 492.034 264.852 492.909 262.748 493.97C258.894 490.187 255.787 485.279 251.999 481.404C238.058 467.146 218.496 459.973 199.427 455.695C195.968 454.919 192.646 454.601 189.307 453.331C186.276 453.639 177.879 453.596 174.412 453.742C178.243 451.959 182.521 450.299 186.454 448.685C189.499 447.682 192.965 446.815 196.086 445.967Z" fill="#01004C"/>
<path d="M189.307 453.331C221.1 450.202 253.162 464.064 274.95 486.917C272.847 487.831 269.595 488.853 268.598 490.799C266.564 492.034 264.852 492.909 262.748 493.97C258.894 490.187 255.787 485.279 251.999 481.404C238.058 467.146 218.496 459.973 199.427 455.695C195.968 454.919 192.646 454.601 189.307 453.331Z" fill="#343750"/>
<path d="M186.454 448.685L185.785 446.789L186.343 445.993C188.355 445.678 193.681 445.932 196.086 445.967C192.965 446.815 189.499 447.682 186.454 448.685Z" fill="#343750"/>
<path d="M659.98 448.2C667.926 438.677 692.991 447.945 701.924 452.242L701.359 452.826C704.005 455.883 707.192 458.972 709.586 462.06C727.587 478.225 740.515 499.952 749.065 522.379C745.538 521.151 732.606 516.247 730.28 517.235L730.572 517.925C743.061 541.583 745.419 560.846 737.365 586.947C730.166 610.966 713.462 630.998 691.128 642.396C690.803 642.55 690.479 642.704 690.154 642.857L691.785 638.296L692.399 634.604C694.804 619.401 691.641 601.793 678.397 592.335C672.535 588.149 667.514 587.036 660.542 585.928C660.192 581.868 659.402 577.859 658.186 573.97C650.812 550.538 629.582 539.995 606.372 547.687C593.433 528.823 582.687 525.142 560.308 529.578L548.288 520.501L548.217 519.317L549.142 519.526C550.666 518.369 552.212 515.279 553.262 513.573C557.792 506.214 562.581 498.37 568.614 492.112C573.712 493.698 578.78 495.38 583.814 497.159L605.147 505.503C598.385 500.584 592.772 497.408 585.37 493.822C600.361 473.127 616.607 464.388 641.177 457.352C645.729 456.049 653.892 455.677 657.568 453.525L672.858 453.496C668.525 451.151 664.624 449.786 659.98 448.2Z" fill="#4E535F"/>
<path d="M709.586 462.061C727.587 478.226 740.515 499.953 749.065 522.38C745.538 521.152 732.606 516.248 730.28 517.236L730.572 517.926C743.061 541.584 745.419 560.847 737.365 586.948C730.166 610.967 713.462 630.999 691.128 642.397C690.803 642.551 690.479 642.705 690.154 642.858L691.785 638.297L692.399 634.605C694.804 619.402 691.641 601.794 678.397 592.336C672.535 588.15 667.514 587.037 660.542 585.929C660.192 581.869 659.402 577.86 658.186 573.971C650.812 550.539 629.582 539.996 606.372 547.688C593.433 528.824 582.687 525.143 560.308 529.579L548.288 520.502L548.217 519.318L549.142 519.527C550.666 518.37 552.212 515.28 553.262 513.574C557.792 506.215 562.581 498.371 568.614 492.113C573.712 493.699 578.78 495.381 583.814 497.16C580.279 500.067 575.434 515.423 574.064 520.292C588.585 521.144 597.345 526.814 608.495 535.317C638.625 532.43 658.16 542.479 671.612 569.766C713.146 558.601 728.602 518.949 715.648 480.203C714.187 475.832 709.849 465.853 709.586 462.061Z" fill="#343750"/>
<path d="M730.572 517.925C743.061 541.583 745.419 560.846 737.365 586.947C730.166 610.966 713.462 630.998 691.128 642.396C690.803 642.55 690.479 642.704 690.154 642.857L691.785 638.296C722.876 609.125 736.418 572.339 731.522 529.751C731.113 526.195 730.25 521.421 730.572 517.925Z" fill="#6965D4"/>
<path d="M189.666 287.212C194.484 275.72 203.108 261.112 210.078 250.855C237.552 209.576 276.724 177.438 322.576 158.558C388.736 131.855 462.756 132.309 528.584 159.82C590.946 186.095 639.686 238.236 664.381 300.771C677.28 333.437 686.384 375.297 687.017 410.575C721.728 436.754 745.392 470.553 752.118 514.329C752.599 517.461 753.028 521.089 753.106 524.229L749.065 522.379C740.515 499.952 727.587 478.225 709.586 462.06C707.192 458.972 704.005 455.883 701.359 452.826L701.924 452.242C707.915 454.387 713.877 456.615 719.807 458.923C717.092 455.427 715.29 452.644 712.269 449.089C700.88 435.688 688.625 427.322 674.413 417.422C673.956 388.918 670.729 369.494 663.65 342.109C648.181 278.284 608.385 223.029 552.752 188.13C497.54 153.834 430.917 143.01 367.687 158.062C294.215 175.419 233.14 225.737 201.527 294.298C193.608 311.472 187.834 328.599 183.047 346.863C177.517 368.646 173.404 394.661 173.291 417.17L172.565 417.835C169.265 420.802 161.982 424.996 158.155 428.048C146.898 437.022 137.058 446.835 128.803 458.604C134.915 456.306 141.181 453.864 147.32 451.687C143.953 455.332 141.318 458.628 138.241 462.49C118.333 481.886 108.488 496.284 99.1828 522.578C97.9378 523.325 95.8758 524.113 94.4658 524.703C94.5538 524.002 94.6378 523.301 94.7188 522.599C99.2528 484.188 113.896 454.403 141.554 426.916C147.681 420.827 154.047 416.013 160.794 410.689C162.549 381.481 166.028 354.469 174.913 326.434C176.654 320.937 178.893 313.08 181.252 307.919C182.838 302.362 187.09 292.27 189.666 287.212Z" fill="url(#paint2_linear_878_3579)"/>
<path d="M189.665 287.212C190.215 288.704 189.035 290.628 188.735 292.778C187.941 298.453 184.011 302.329 182.023 307.94L181.251 307.919C182.837 302.362 187.089 292.27 189.665 287.212Z" fill="#9794E9"/>
<path d="M663.65 342.109C670.729 369.494 673.956 388.918 674.413 417.422C688.625 427.322 700.88 435.688 712.269 449.089C715.29 452.644 717.092 455.427 719.807 458.923C713.877 456.615 707.915 454.387 701.924 452.242C692.991 447.945 667.926 438.677 659.98 448.2C664.624 449.786 668.525 451.151 672.858 453.496L657.568 453.525C653.892 455.677 645.729 456.049 641.177 457.352C616.607 464.388 600.361 473.127 585.37 493.822C582.236 492.488 578.18 490.89 575.257 489.322C574.384 487.767 574.897 488.486 572.96 487.407C563.122 482.409 554.373 479.476 543.864 476.323C535.999 474.483 529.805 473.296 521.86 472.281C523.668 466.106 524.548 459.26 527.071 453.18C527.581 453.742 528.351 454.124 529.141 454.027C582.678 447.447 633.539 427.108 636.587 365.709C642.157 378.939 642.318 383.124 642.985 397.089C651.039 384.522 656.548 375.808 660.062 360.543C660.956 356.66 662.363 344.604 663.65 342.109Z" fill="#343750"/>
<path d="M543.864 476.323C544.297 476.036 544.73 475.749 545.164 475.462C576.207 459.596 607.181 440.733 643.589 444.818C649.048 445.431 654.648 446.876 659.98 448.2C664.624 449.786 668.525 451.151 672.858 453.496L657.568 453.525C653.892 455.677 645.729 456.049 641.177 457.352C616.607 464.388 600.361 473.127 585.37 493.822C582.236 492.488 578.18 490.89 575.257 489.322C574.384 487.767 574.897 488.486 572.96 487.407C563.122 482.409 554.373 479.476 543.864 476.323Z" fill="#01004C"/>
<path d="M572.959 487.407C595.32 464.04 624.763 450.694 657.568 453.525C653.892 455.677 645.728 456.049 641.176 457.352C616.606 464.388 600.361 473.127 585.37 493.822C582.236 492.488 578.179 490.89 575.256 489.322C574.383 487.767 574.896 488.486 572.959 487.407Z" fill="#343750"/>
<path d="M483.768 475.203L482.98 474.891L482.73 474.279C489.102 470.334 506.916 471.581 514.493 471.501C517.242 471.671 519.114 471.774 521.86 472.281C529.805 473.296 535.999 474.483 543.864 476.323C554.373 479.476 563.122 482.409 572.96 487.407C574.897 488.486 574.384 487.767 575.257 489.322C578.18 490.89 582.236 492.488 585.37 493.822C592.772 497.408 598.385 500.584 605.147 505.503L583.814 497.159C578.78 495.38 573.712 493.698 568.614 492.112C562.581 498.37 557.792 506.214 553.262 513.573C552.212 515.279 550.666 518.369 549.142 519.526L548.217 519.317L548.288 520.501C528.138 506.262 506.5 498.217 482.536 493.278C484.224 490.386 495.987 492.348 498.786 493.276C498.993 491.407 502.999 483.653 504.108 481.151C500.294 481.338 475.05 484.455 477.102 477.365C479.029 475.83 481.168 475.887 483.768 475.203Z" fill="#01004C"/>
<path d="M483.767 475.203L482.979 474.891L482.729 474.279C489.101 470.334 506.915 471.581 514.492 471.501C517.241 471.671 519.113 471.774 521.859 472.281C529.804 473.296 535.998 474.483 543.863 476.323C554.372 479.476 563.121 482.409 572.959 487.407C574.896 488.486 574.383 487.767 575.256 489.322C547.022 477.04 514.246 473.244 483.767 475.203Z" fill="#787C88"/>
<path d="M482.536 493.278C484.224 490.386 495.987 492.348 498.786 493.276C508.956 495.924 514.973 498.372 524.382 503.236L537.179 510.895C540.717 513.509 544.941 516.471 548.217 519.317L548.288 520.501C528.138 506.262 506.5 498.217 482.536 493.278Z" fill="url(#paint3_linear_878_3579)"/>
<path d="M524.382 503.236C532.996 499.488 542.127 494.602 550.521 491.138C545.159 497.991 541.559 503.332 537.179 510.895L524.382 503.236Z" fill="#343750"/>
<path d="M518.175 482.238C521.396 482.442 524.609 482.758 527.808 483.187L522.055 485.787L516.576 488.266C516.949 485.864 517.437 484.525 518.175 482.238Z" fill="#343750"/>
<path d="M562.961 319.531C573.957 313.303 584.1 311.241 596.749 310.85C590.015 316.724 588.867 317.175 583.779 324.17C577.778 332.422 577.806 357.786 574.823 360.12L574.412 359.674C574.372 342.756 572.078 333.51 562.961 319.531Z" fill="#343750"/>
<path d="M251.62 310.857C264.435 311.038 273.403 312.644 284.575 319.506C275.349 334.429 273.987 343.683 273.769 360.743C273.191 356.673 271.525 351.886 270.786 347.358C267.465 327.007 267.005 323.813 251.62 310.857Z" fill="#343750"/>
<path d="M514.493 471.501C512.634 471.256 511.797 471.131 510 470.642C509.263 463.191 526.694 442.681 533.128 437.718C530.739 443.18 529.071 447.575 527.071 453.18C524.548 459.26 523.668 466.106 521.86 472.281C519.114 471.774 517.242 471.671 514.493 471.501Z" fill="#01004C"/>
<path d="M320.241 442.496C328.426 451.293 334.289 459.931 338.993 471.033L326.31 472.299C324.64 467.897 323.733 460.468 321.283 454.034C320.167 450.548 318.624 446.699 317.32 443.236L320.241 442.496Z" fill="#01004C"/>
<path d="M314.364 436.854C316.533 438.669 318.265 440.489 320.241 442.496L317.32 443.237L314.364 436.854Z" fill="#150D3A"/>
<path d="M530.759 298.252L531.209 298.247L531.347 298.718C515.187 305.139 500.993 317.463 488.692 329.54C478.177 339.864 464.7 358.71 453.8 336.946C452.245 332.102 452.143 328.285 451.99 323.24C456.797 334.23 461.864 339.944 472.976 330.097C489.633 315.338 507.813 300.789 530.759 298.252Z" fill="#787C88"/>
<path d="M318.513 299.69C330.508 298.13 353.226 311.195 362.04 319.085C367.446 323.925 375.283 331.439 381.77 334.284C384.409 335.442 387.944 333.822 390.373 332.598C392.818 329.418 394.27 326.496 395.873 322.872C395.89 327.157 395.578 331.237 394.522 335.394L394.332 335.926C385.069 361.257 366.071 336.379 356.352 326.675C352.085 322.383 347.615 318.297 342.957 314.433C335.253 308.107 327.72 303.427 318.513 299.69Z" fill="#787C88"/>
<path d="M492.412 526.461C504.205 536.453 514.117 547.756 523.301 560.125C517.679 572.266 516.972 578.53 516.53 591.46C503.538 609.959 477.186 621.178 456.024 626.876C417.108 637.355 368.475 626.789 338.408 599.764C335.236 596.647 333.563 594.814 331.053 591.186C331.133 577.028 330.3 572.951 324.898 560.113C334.019 547.766 343.478 536.531 355.475 526.824C361.475 533.044 365.559 536.357 372.839 540.937C376.641 555.775 386.614 566.103 400.615 571.972C415.594 578.084 432.372 578.077 447.346 571.954C462.953 565.434 469.64 555.491 475.783 540.735C482.896 535.907 486.876 532.94 492.412 526.461Z" fill="#343750"/>
<path d="M413.405 396.65C420.635 392.027 427.959 392.285 435.015 397.157C446.407 403.967 458.582 419.204 462.509 431.769C464.617 438.516 456.906 464.334 454.709 472.374C451.272 470.502 445.106 466.766 441.436 466.49C448.85 474.343 465.642 487.919 465.443 499.76C465.435 500.138 465.419 500.516 465.396 500.894C460.308 515.053 442.387 529.17 428.701 533.858C413.941 538.914 386.266 514.054 382.38 500.563C382.87 487.878 398.238 475.15 406.253 466.789C403.075 466.827 396.536 470.424 393.339 472.01C391.196 463.431 382.946 438.038 385.149 431.236C388.923 419.585 402.563 402.735 413.405 396.65Z" fill="#E9BBCD"/>
<path d="M404.274 488.811C421.227 484.555 428.613 484.823 445.572 489.369C454.297 492.782 458.375 494.533 465.396 500.894C460.308 515.053 442.387 529.17 428.701 533.858C413.941 538.914 386.266 514.054 382.38 500.563C385.435 499.764 389.795 495.029 392.577 493.6C395.991 491.846 400.625 490.203 404.274 488.811Z" fill="#BE85AB"/>
<path d="M447.728 501.143C450.144 501.308 454.602 501.877 455.281 504.532C453.832 506.076 451.495 506.578 449.458 508.102C445.627 510.968 442.775 515.03 439.828 518.799L436.034 523.599C435.965 513.562 436.835 504.534 447.728 501.143Z" fill="#01004C"/>
<path d="M395.753 501.668C396.269 501.603 396.785 501.545 397.303 501.494C410.746 500.226 413.374 519.467 410.963 522.196L410.015 521.211C405.395 515.18 400.675 508.016 393.646 505.245C392.711 504.877 392.684 504.768 391.92 504.067C392.826 502.831 394.313 502.352 395.753 501.668Z" fill="#01004C"/>
<path d="M393.339 472.01C391.196 463.431 382.946 438.038 385.149 431.236C388.923 419.585 402.563 402.735 413.405 396.65C410.728 402.567 407.678 409.427 406.073 415.691C402.194 430.825 402.471 451.805 406.253 466.789C403.075 466.827 396.536 470.424 393.339 472.01Z" fill="#BE85AB"/>
<path d="M435.015 397.157C446.407 403.967 458.582 419.204 462.509 431.769C464.617 438.516 456.906 464.334 454.709 472.374C451.272 470.502 445.106 466.766 441.436 466.49C443.093 461.502 443.903 453.762 444.285 448.554C445.896 426.613 443.161 416.642 435.015 397.157Z" fill="#BE85AB"/>
<path d="M404.274 488.811C402.7 484.616 411.908 481.878 414.871 480.861C421.877 478.458 429.261 478.7 436.181 481.17C440.525 482.72 444.697 483.904 446.26 488.411C445.871 489.254 446.148 488.974 445.572 489.369C428.613 484.823 421.227 484.555 404.274 488.811Z" fill="#F9D2E0"/>
<path d="M209.627 568.478C221.202 552.519 244.684 560.873 255.799 572.82C259.281 577.421 259.813 581.206 262.213 585.183C264.9 592.155 266.236 597.58 266.619 605.146C249.914 594.844 234.906 594.13 227.746 615.657C226.384 624.27 226.308 628.077 227.254 636.683C221.466 632.319 216.935 628.18 212.112 622.715C210.796 621.225 208.674 617.644 207.404 617.551L207.24 617.661C206.384 615.006 205.442 614.081 203.244 612.527C203.996 610.623 201.888 603.001 201.606 600.023C200.539 588.758 202.638 577.496 209.627 568.478Z" fill="#E9BBCD"/>
<path d="M203.244 612.527C203.996 610.623 201.888 603.001 201.606 600.023C200.539 588.758 202.638 577.497 209.627 568.479C209.13 586.539 210.402 596.982 223.417 611.378C224.542 612.623 226.46 614.683 227.746 615.657C226.384 624.27 226.308 628.077 227.254 636.683C221.466 632.319 216.935 628.181 212.112 622.716C210.796 621.226 208.674 617.645 207.404 617.552L207.24 617.661C206.384 615.006 205.442 614.081 203.244 612.527Z" fill="#BE85AB"/>
<path d="M592.106 572.87C604.375 561.058 623.431 552.754 637.363 567.209C644.531 576.475 647.709 588.216 646.194 599.833C645.652 604.047 643.368 610.23 643.575 613.592C643.116 614.12 641.489 616.066 641.063 616.411C640.28 617.045 635.488 622.587 634.347 623.873C629.543 629.286 625.992 632.405 620.313 636.856C621.033 627.976 621.01 624.621 619.816 615.751C612.157 593.528 598.983 595.075 581.537 604.792C581.998 596.943 583.315 592.124 585.725 584.658C586.228 584.367 586.178 584.461 586.408 583.582C587.434 579.654 589.708 576.162 592.106 572.87Z" fill="#E9BBCD"/>
<path d="M637.362 567.209C644.53 576.475 647.708 588.216 646.193 599.833C645.651 604.047 643.367 610.23 643.574 613.592C643.115 614.12 641.488 616.066 641.062 616.411C640.279 617.045 635.487 622.587 634.346 623.873C629.542 629.286 625.991 632.405 620.312 636.856C621.032 627.976 621.009 624.621 619.815 615.751C620.758 615.063 625.749 609.915 626.643 608.814C638.032 594.796 638.289 583.795 637.362 567.209Z" fill="#BE85AB"/>
<path d="M244.901 611.43C250.111 610.412 254.984 612.187 259.344 615.09C277.985 627.502 281.267 654.906 288.557 675.119C292.848 687.017 296.24 694.423 300.991 705.751L296.259 701.94C274.868 693.192 218.593 635.408 244.901 611.43Z" fill="#787C88"/>
<path d="M296.259 701.94C274.868 693.192 218.593 635.408 244.901 611.43C251.086 634.246 267.028 663.01 280.648 682.273C283.449 686.235 295.247 699.889 296.259 701.94Z" fill="#343750"/>
<path d="M547.287 704.96C551.806 695.28 555.78 685.354 559.19 675.229C561.659 667.848 564.066 660.445 566.41 653.023C570.198 641.106 572.772 629.878 581.877 620.658C587.86 614.6 593.691 611.117 602.381 610.973C607.043 614.774 608.379 618.925 609.211 624.84C611.471 640.923 600.268 655.807 590.889 667.82C582.573 678.472 564.022 695.734 551.549 701.94L547.287 704.96Z" fill="#787C88"/>
<path d="M602.381 610.973C607.043 614.774 608.379 618.925 609.211 624.84C611.471 640.923 600.268 655.807 590.889 667.82C582.573 678.472 564.022 695.734 551.549 701.94C552.271 699.498 559.448 691.631 561.352 689.345C580.326 666.562 593.988 639.244 602.381 610.973Z" fill="#343750"/>
<path d="M570.424 542.938L573.913 542.558C576.825 542.524 577.555 542.52 580.379 543.137C588.299 546.203 594.167 552.604 596.014 560.977C594.849 564.46 592.179 569.883 592.105 572.87C589.707 576.162 587.433 579.654 586.407 583.582C586.177 584.461 586.227 584.367 585.724 584.658C574.738 594.929 573.604 604.382 569.272 617.54C568.521 619.82 562.826 626.962 561.094 630.011L555.398 629.666C567.994 616.849 569.819 603.647 564.706 586.557C557.562 569.573 546.741 569.538 531.896 577.079C534.622 569.215 536.151 565.549 541.904 559.063C548.183 551.982 560.733 543.428 570.424 542.938Z" fill="#E9BBCD"/>
<path d="M580.379 543.137C588.299 546.203 594.167 552.604 596.014 560.977C594.849 564.46 592.179 569.883 592.105 572.87C589.707 576.162 587.433 579.654 586.407 583.582C586.177 584.461 586.227 584.367 585.724 584.658C574.738 594.929 573.604 604.382 569.272 617.54C568.521 619.82 562.826 626.962 561.094 630.011L555.398 629.666C567.994 616.849 569.818 603.647 564.705 586.557C579.003 579.312 582.438 567.845 582.272 552.759C581.85 551.047 581.355 550.785 580.214 549.303C580.857 548.291 580.452 544.515 580.379 543.137Z" fill="#BE85AB"/>
<path d="M570.425 542.938L573.914 542.558C576.826 542.524 577.556 542.52 580.38 543.137C580.453 544.515 580.858 548.291 580.215 549.303C581.356 550.785 581.851 551.047 582.273 552.759C578.506 549.868 574.385 546.054 570.425 542.938Z" fill="#150D3A"/>
<path d="M573.914 542.558C576.826 542.524 577.556 542.52 580.38 543.137C580.453 544.515 580.858 548.291 580.215 549.303L573.914 542.558Z" fill="#E9BBCD"/>
<path d="M267.919 542.94L274.144 542.045C272.264 544.066 270.037 546.579 268.105 548.479L265.379 552.067L265.485 552.706C268.054 551.473 274.671 544.753 278.137 542.259C295.674 547.437 311.29 558.465 315.883 576.932C302.167 570.386 291.647 569.045 284.071 584.813C283.786 585.408 283.507 586.005 283.234 586.606C280.356 596.202 280.017 601.621 281.623 611.467C280.338 611.252 279.24 611.055 277.959 610.779C277.168 611.369 277.414 610.989 277.173 611.884C274.441 600.528 270.115 593.847 262.858 585.002L262.213 585.183C259.813 581.206 259.281 577.421 255.799 572.82C255.658 568.738 250.086 563.792 253.187 556.85C256.205 550.093 261.359 545.799 267.919 542.94Z" fill="#E9BBCD"/>
<path d="M267.919 542.94L274.144 542.045C272.264 544.066 270.037 546.579 268.105 548.479L265.379 552.067L265.485 552.706C265.274 567.162 268.656 580.263 283.234 586.606C280.356 596.202 280.017 601.621 281.623 611.467C280.338 611.252 279.24 611.055 277.959 610.779C277.168 611.369 277.414 610.989 277.173 611.884C274.441 600.528 270.115 593.847 262.858 585.002L262.213 585.183C259.813 581.206 259.281 577.421 255.799 572.82C255.658 568.738 250.086 563.792 253.187 556.85C256.205 550.093 261.359 545.799 267.919 542.94Z" fill="#BE85AB"/>
<path d="M267.919 542.94L274.144 542.045C272.264 544.066 270.037 546.579 268.105 548.479C267.315 546.211 267.599 545.363 267.919 542.94Z" fill="#E9BBCD"/>
<path d="M320.157 335.567C328.869 335.002 348.585 357.506 352.893 364.609C350.356 377.18 344.699 383.46 332.406 387.683C325.897 388.588 321.067 388.68 314.896 385.565C308.169 382.184 303.098 376.223 300.84 369.04C295.912 353.493 304.695 339.763 320.157 335.567Z" fill="#9794E9"/>
<path d="M317.048 343.842C321.459 343.178 325.584 346.185 326.302 350.587C327.02 354.99 324.065 359.151 319.672 359.924C316.781 360.433 313.84 359.347 311.973 357.082C310.106 354.817 309.602 351.724 310.652 348.983C311.702 346.242 314.146 344.278 317.048 343.842Z" fill="#FCFCFB"/>
<path d="M525.746 334.923C539.256 338.482 548.479 346.54 548.406 361.536C548.378 368.701 545.431 375.545 540.245 380.489C533.585 386.852 526.868 388.366 518.127 388.118C503.771 385.19 498.3 377.781 495.128 364.152C501.564 353.993 515.591 341.434 525.746 334.923Z" fill="#9794E9"/>
<path d="M529.059 343.778C533.349 343.367 537.196 346.423 537.768 350.694C538.34 354.966 535.433 358.926 531.186 359.659C528.292 360.159 525.356 359.036 523.534 356.733C521.712 354.43 521.295 351.315 522.447 348.614C523.599 345.913 526.135 344.057 529.059 343.778Z" fill="#FCFCFB"/>
<path d="M183.715 601.221C187.68 600.444 189.571 600.516 193.653 600.529C196.527 604.421 199.877 609.158 203.244 612.527C205.442 614.081 206.384 615.006 207.24 617.661C208.58 629.129 212.516 637.784 221.336 645.894C225.451 649.677 231.845 651.092 233.588 656.326L233.08 656.866C231.05 656.546 227.472 652.554 225.208 651.118C216.03 645.295 202.435 641.071 192.66 647.508C188.365 652.242 187.342 654.858 186.128 660.955C180.723 655.794 176.381 649.625 173.347 642.795C167.131 628.599 166.809 608.005 183.715 601.221Z" fill="#E9BBCD"/>
<path d="M186.128 660.955C180.723 655.794 176.381 649.625 173.347 642.795C167.131 628.599 166.809 608.005 183.715 601.221C179.837 617.11 180.396 635.141 192.66 647.508C188.365 652.242 187.342 654.858 186.128 660.955Z" fill="#BE85AB"/>
<path d="M655.039 600.606C657.985 600.786 660.656 600.936 663.587 601.324C679.746 606.479 680.682 624.939 676.261 638.725C673.44 647.519 668.418 654.631 662.056 661.238C660.54 655.551 659.748 651.745 655.518 647.383C647.059 642.035 637.641 643.822 628.884 647.412C623.371 649.671 619.907 653.058 615.591 656.976L614.647 656.913L614.395 656.212C614.866 654.203 615.817 652.998 616.919 651.258C632.76 644.069 638.704 633.045 641.063 616.411C641.489 616.066 643.116 614.12 643.575 613.592C647.842 609.406 651.23 605.189 655.039 600.606Z" fill="#E9BBCD"/>
<path d="M663.587 601.324C679.746 606.479 680.682 624.939 676.261 638.725C673.44 647.519 668.418 654.631 662.056 661.238C660.54 655.551 659.748 651.745 655.518 647.383C657.653 645.732 660.736 640.497 661.863 637.942C667.093 626.083 668.131 613.496 663.587 601.324Z" fill="#BE85AB"/>
<path d="M298.69 584.831C313.292 580.003 327.031 609.314 330.131 619.874C333.385 630.959 337.421 654.324 333.631 665.261L333.184 664.658C327.239 654.566 322.019 646.375 314.423 637.316C308.564 629.962 301.161 623.207 296.074 615.32C290.1 606.057 291.516 592.864 298.69 584.831Z" fill="#343750"/>
<path d="M298.689 584.831C313.291 580.003 327.03 609.314 330.13 619.874C333.384 630.959 337.42 654.324 333.63 665.261L333.183 664.658C330.312 637.006 315.697 606.678 298.689 584.831Z" fill="#787C88"/>
<path d="M515.147 664.052L514.724 665.066L514.184 665.087C512.628 654.099 512.828 642.934 514.775 632.008C517.209 618.673 530.917 580.308 549.245 584.269C553.989 589.925 555.849 597.469 555.049 604.905C553.508 619.226 534.766 633.43 526.575 645.921C522.694 651.84 518.686 658.888 515.147 664.052Z" fill="#343750"/>
<path d="M515.147 664.052L514.724 665.066L514.184 665.087C512.628 654.099 512.828 642.934 514.775 632.008C517.209 618.673 530.917 580.308 549.245 584.269C547.374 587.253 545.342 589.839 543.334 592.743C530.708 611.014 521.196 631.882 516.439 653.623C515.822 656.44 514.898 661.27 515.147 664.052Z" fill="#787C88"/>
<path d="M202.152 654.93C227.712 655.819 222.601 668.033 232.778 686.852C237.743 696.032 243.548 704.007 250.554 711.74C249.226 711.168 246.854 710.055 245.568 709.65C236.358 707.71 223.503 699.919 216.369 693.931C206.736 685.845 189.768 667.118 202.152 654.93Z" fill="#787C88"/>
<path d="M245.568 709.65C236.358 707.71 223.503 699.919 216.369 693.931C206.736 685.845 189.768 667.118 202.152 654.93C210.708 672.876 219.583 686.219 234.114 700.034C236.838 702.623 244.323 707.594 245.568 709.65Z" fill="#343750"/>
<path d="M600.487 709.839L598.844 710.436L598.725 709.96C605.598 702.268 609.73 696.066 614.955 687.168C624.906 670.223 620.813 655.334 645.092 655.331C654.838 661.904 649.094 673.022 643.734 680.672C634.066 694.471 617.629 704.619 601.744 709.701C601.401 709.81 600.863 709.821 600.487 709.839Z" fill="#787C88"/>
<path d="M645.092 655.331C654.838 661.904 649.094 673.022 643.734 680.672C634.066 694.471 617.629 704.619 601.744 709.701C601.401 709.81 600.863 709.821 600.487 709.839C602.422 707.785 609.617 702.981 612.632 700.251C626.553 687.783 637.624 672.462 645.092 655.331Z" fill="#343750"/>
<path d="M401.38 540.643C405.175 541.69 410.546 544.91 414.934 546.496C427.14 550.909 434.867 545.876 445.686 540.679C450.452 541.363 455.698 542.519 460.626 543.284C456.611 549.498 453.904 552.56 448.016 557.002C434.349 564.839 417.364 565.496 403.004 558.852C395.635 555.442 391.485 550.373 387.261 543.673C393.123 542.93 395.669 542.306 401.38 540.643Z" fill="#343750"/>
<path d="M360.661 510.305C363.985 508.575 365.401 507.053 369.015 508.696C354.96 518.453 345.595 525.971 335.059 539.927C331.468 545.482 327.906 551.055 324.372 556.646C323.169 538.373 321.209 534.726 314.822 517.788C321.133 514.872 328.085 511.702 334.624 509.432C340.906 513.304 343.356 515.371 348.791 520.455C352.494 516.785 356.461 513.393 360.661 510.305Z" fill="#343750"/>
<path d="M360.661 510.305C363.985 508.575 365.401 507.053 369.015 508.696C354.96 518.453 345.595 525.971 335.059 539.927L334.818 539.267C335.548 535.743 345.732 523.936 348.791 520.455C352.494 516.785 356.461 513.393 360.661 510.305Z" fill="#787C88"/>
<path d="M478.939 508.681C482.679 507.206 483.45 508.033 486.674 510.065C491.363 513.256 494.933 516.423 498.985 520.402C503.369 516.296 509.32 512.123 514.776 509.601C519.283 511.501 529.256 515.49 533.107 517.979C527.065 531.595 524.036 541.166 523.342 556.43C519.753 550.414 516.312 545.59 512.698 539.83C504.224 528.548 491.211 515.998 478.939 508.681Z" fill="#343750"/>
<path d="M478.939 508.681C482.679 507.206 483.45 508.033 486.674 510.065C491.363 513.256 494.933 516.423 498.985 520.402C502.535 524.177 511.204 534.604 512.972 539.233L512.698 539.83C504.224 528.548 491.211 515.998 478.939 508.681Z" fill="#787C88"/>
<path d="M480.879 497.061C483.178 497.187 490.709 500.011 493.3 500.902C490.995 504.797 489.932 506.897 486.675 510.065C483.451 508.033 482.68 507.206 478.94 508.681C477.448 508.667 476.848 508.629 476.088 509.796C476.54 512.154 479.844 514.49 481.728 516.042C473.757 523.949 467.938 526.392 456.849 527.197C466.633 518.743 470.903 512.408 473.543 500.019C475.666 499.937 479.685 498.841 480.879 497.061Z" fill="#343750"/>
<path d="M368.509 493.202C368.652 496.477 368.56 496.007 365.929 498.329L365.648 499.388C368.427 502.493 370.43 499.729 373.219 498.707L374.418 496.546C374.322 510.203 381.257 517.06 390.173 526.602C379.623 526.013 373.873 524.097 366.382 516.24C368.622 514.414 370.457 513.137 371.972 510.642C371.99 509.103 372.279 509.718 371.339 508.653C370.856 508.651 369.394 508.602 369.015 508.696C365.401 507.053 363.985 508.575 360.661 510.305C358.501 507.002 356.778 504.466 354.368 501.355C357.545 500.331 362.093 499.061 364.947 497.55C367.658 496.114 367.856 495.571 368.509 493.202Z" fill="#343750"/>
<path d="M341.766 615.544C345.263 617.044 351.978 621.781 355.905 623.702C361.92 626.645 367.425 628.636 373.705 630.896C364.287 631.011 354.868 631.063 345.449 631.052C344.726 625.46 343.402 620.912 341.766 615.544Z" fill="#515092"/>
<path d="M505.91 615.552C505.862 618.03 503.295 627.769 502.769 631.107C493.669 631.142 484.568 631.103 475.469 630.987C476.105 630.146 483.517 627.729 485.581 626.831C493.238 623.497 499.006 620.173 505.91 615.552Z" fill="url(#paint4_linear_878_3579)"/>
<path d="M546.628 525.19C549.772 526.885 553.054 529.091 556.086 531.037C552.449 533.144 549.229 535.167 545.699 537.453C543.949 538.751 542.2 540.153 540.48 541.498C542.16 535.009 543.633 531.124 546.628 525.19Z" fill="#343750"/>
<path d="M301.244 525.62C303.548 528.058 306.219 537.771 307.087 541.094L302.349 537.64C298.344 534.983 296.084 533.631 291.773 531.488C294.717 529.164 297.978 527.458 301.244 525.62Z" fill="#343750"/>
<path d="M277.173 611.884C277.414 610.989 277.168 611.369 277.959 610.779C279.24 611.055 280.338 611.252 281.623 611.467C283.881 620.045 286.252 622.923 291.666 629.875C289.535 629.864 287.969 630.308 286.54 628.595C282.315 623.53 277.496 618.638 277.173 611.884Z" fill="#E9BBCD"/>
<defs>
<linearGradient id="paint0_linear_878_3579" x1="258.778" y1="372.362" x2="190.554" y2="574.017" gradientUnits="userSpaceOnUse">
<stop stop-color="#2A2D4A"/>
<stop offset="1" stop-color="#5D6269"/>
</linearGradient>
<linearGradient id="paint1_linear_878_3579" x1="333.05" y1="507.378" x2="330.002" y2="500.931" gradientUnits="userSpaceOnUse">
<stop stop-color="#71757A"/>
<stop offset="1" stop-color="#6D748C"/>
</linearGradient>
<linearGradient id="paint2_linear_878_3579" x1="424.848" y1="541.705" x2="401.325" y2="140.279" gradientUnits="userSpaceOnUse">
<stop stop-color="#635FD0"/>
<stop offset="1" stop-color="#A3A1EB"/>
</linearGradient>
<linearGradient id="paint3_linear_878_3579" x1="514.045" y1="509.922" x2="517.179" y2="499.205" gradientUnits="userSpaceOnUse">
<stop stop-color="#62696D"/>
<stop offset="1" stop-color="#73778E"/>
</linearGradient>
<linearGradient id="paint4_linear_878_3579" x1="487.051" y1="635.033" x2="499.715" y2="614.446" gradientUnits="userSpaceOnUse">
<stop stop-color="#3F416E"/>
<stop offset="1" stop-color="#56597F"/>
</linearGradient>
</defs>
</svg>
